@startuml
'https://plantuml.com/class-diagram

hide methods
hide fields

left to right direction


class User
class Password
class Username
class Email
class Role
class RoleDescription
class RoleId
class UserId
class AccessLevel
class Session

User *--> "1"UserId
User *--> "1"Password
User *-->"1"Email
User *--> "1"Username
User o-->"1.*"Role
Role *-->"1"RoleId
Role *-->"1"RoleDescription
Role *-->"1"AccessLevel
Session o-->"1"User

@enduml